HIERARCHY
ROOT Hips
{
    OFFSET 0.0 0.0 0.0
    CHANNELS 6 Xposition Yposition Zposition Zrotation Xrotation Yrotation
    JOINT LeftHipJoint
    {
        OFFSET 0.1 0.0 0.0
        CHANNELS 3 Zrotation Xrotation Yrotation
        JOINT LeftUpLeg
        {
            OFFSET 123.62487617582268 0.0 0.0
            CHANNELS 3 Zrotation Xrotation Yrotation
            JOINT LeftLeg
            {
                OFFSET 0.0 0.0 -395.8966023889336
                CHANNELS 3 Zrotation Xrotation Yrotation
                JOINT LeftFoot
                {
                    OFFSET 0.0 0.0 -384.03536469858375
                    CHANNELS 3 Zrotation Xrotation Yrotation
                    End Site
                    {
                        OFFSET 0.0 -0.1 0.0
                    }
                }
            }
        }
    }
    JOINT LowerBack
    {
        OFFSET 0.0 0.0 0.1
        CHANNELS 3 Zrotation Xrotation Yrotation
        JOINT Spine
        {
            OFFSET 0.0 0.0 223.43927475031617
            CHANNELS 3 Zrotation Xrotation Yrotation
            JOINT Spine1
            {
                OFFSET 0.0 0.0 250.8962740022711
                CHANNELS 3 Zrotation Xrotation Yrotation
                JOINT LeftShoulder
                {
                    OFFSET 0.1 0.0 0.0
                    CHANNELS 3 Zrotation Xrotation Yrotation
                    JOINT LeftArm
                    {
                        OFFSET 143.05115553040446 0.0 0.0
                        CHANNELS 3 Zrotation Xrotation Yrotation
                        JOINT LeftForeArm
                        {
                            OFFSET 272.74290209047086 0.0 0.0
                            CHANNELS 3 Zrotation Xrotation Yrotation
                            JOINT LeftHand
                            {
                                OFFSET 242.79348491843572 0.0 0.0
                                CHANNELS 3 Zrotation Xrotation Yrotation
                                End Site
                                {
                                    OFFSET 0.1 0.0 0.0
                                }
                            }
                        }
                    }
                }
                JOINT Neck
                {
                    OFFSET 0.0 0.0 0.1
                    CHANNELS 3 Zrotation Xrotation Yrotation
                    JOINT Neck1
                    {
                        OFFSET 0.0 0.0 107.52106244420354
                        CHANNELS 3 Zrotation Xrotation Yrotation
                        End Site
                        {
                            OFFSET 0.0 0.0 110.21247070304346
                        }
                    }
                }
                JOINT RightShoulder
                {
                    OFFSET -0.1 0.0 0.0
                    CHANNELS 3 Zrotation Xrotation Yrotation
                    JOINT RightArm
                    {
                        OFFSET -143.05115553040446 0.0 0.0
                        CHANNELS 3 Zrotation Xrotation Yrotation
                        JOINT RightForeArm
                        {
                            OFFSET -272.74290209047086 0.0 0.0
                            CHANNELS 3 Zrotation Xrotation Yrotation
                            JOINT RightHand
                            {
                                OFFSET -242.79348491843572 0.0 0.0
                                CHANNELS 3 Zrotation Xrotation Yrotation
                                End Site
                                {
                                    OFFSET -0.1 0.0 0.0
                                }
                            }
                        }
                    }
                }
            }
        }
    }
    JOINT RightHipJoint
    {
        OFFSET -0.1 0.0 0.0
        CHANNELS 3 Zrotation Xrotation Yrotation
        JOINT RightUpLeg
        {
            OFFSET -123.62487617582268 0.0 0.0
            CHANNELS 3 Zrotation Xrotation Yrotation
            JOINT RightLeg
            {
                OFFSET 0.0 0.0 -395.8966023889336
                CHANNELS 3 Zrotation Xrotation Yrotation
                JOINT RightFoot
                {
                    OFFSET 0.0 0.0 -384.03536469858375
                    CHANNELS 3 Zrotation Xrotation Yrotation
                    End Site
                    {
                        OFFSET 0.0 -0.1 0.0
                    }
                }
            }
        }
    }
}
MOTION
Frames: 7
Frame Time: 0.03333333333333333
0.0 0.0 771.5299988148025 25.22092422239647 11.13192401056944 7.775080955946087 0.0 -1.5902773407317584e-15 0.0 -1.8108531142543673 -36.041992666779436 -1.7296520707521494 0.7937335100527744 30.51265983968488 1.1394723446489874 0.0 0.0 4.969616689786745e-16 0.0 -1.5902773407317584e-15 0.0 0.05419570295853104 1.246473935524738 3.415377937062373 0.6370038390794781 7.884962659922167e-16 -1.197109656684713e-15 -3.1805546814635168e-15 -4.4139062980501586e-32 1.5902773407317584e-15 -28.418574368520986 13.079052319538377 71.96696494237021 -25.444838314885907 -3.677346154399268e-15 1.628795238864518e-14 0.0 0.0 5.590818776010087e-16 -3.1805546814635168e-15 -4.4139062980501586e-32 1.5902773407317584e-15 -7.230409590224074 7.872785957210567 -8.00371868752092 -3.1805546814635168e-15 -4.4139062980501586e-32 1.5902773407317584e-15 -2.6545401109654923 -52.558133061090835 -47.142901558079956 132.6703111150006 -7.196788085421657e-16 -1.4205654650459625e-14 0.0 0.0 0.0 0.0 -1.5902773407317584e-15 0.0 -1.5090700189889525 -31.179903453153937 -4.952685994273265 -1.1127530944507602 28.597175843844123 0.2085484861767382 0.0 0.0 -1.987846675914698e-16
0.0 0.0 771.5299988148025 25.16903381041398 11.308874421376455 7.901025103383295 -1.3793457181406746e-33 -3.9756933518293955e-16 -3.9756933518293955e-16 -1.8906877852039716 -36.28311235203254 -1.8526830720362522 0.7905847908273229 30.526058960521656 1.0989684613580737 -1.3793457181406746e-33 -3.975693351829396e-16 -3.975693351829396e-16 -1.3793457181406746e-33 -3.9756933518293955e-16 -3.9756933518293955e-16 0.05468850092632535 1.2154784025715848 3.3814085029323833 0.6750332387753553 1.6393849274274406e-17 2.782937059891653e-15 -1.3793457181406746e-32 1.987846675914698e-15 7.951386703658792e-16 -28.4377142240239 12.984783854262012 72.0018860249036 -25.33932682483042 -2.8580808442957724e-15 -1.2663503320316963e-14 0.0 0.0 -6.708982531212105e-16 -1.3793457181406746e-32 1.987846675914698e-15 7.951386703658792e-16 -7.477035630594554 7.697321274526737 -8.024009316081901 -1.3793457181406746e-32 1.987846675914698e-15 7.951386703658792e-16 -2.778528077358467 -52.64772564281953 -47.15223981976422 132.671625428072 -2.91311345311668e-15 -1.276596291334934e-15 -1.987846675914698e-16 0.0 0.0 -1.3793457181406746e-33 -3.9756933518293955e-16 -3.9756933518293955e-16 -1.5708912885035835 -31.331268182830293 -5.125797037451776 -1.1438535459908716 28.481915065270027 0.3253699491648209 0.0 0.0 -1.987846675914698e-16
0.0 0.0 771.5299988148025 25.09836994253669 11.475201467185675 7.981151506120855 0.0 0.0 1.5902773407317584e-15 -1.9235878582384651 -36.54845569167862 -1.9349193710388566 0.7670755490917958 30.667200873109483 1.1014111576140895 0.0 0.0 7.951386703658792e-16 0.0 0.0 1.5902773407317584e-15 0.054974063058852156 1.2126853836638933 3.4034774938655366 0.6835645855686858 -4.743154005606406e-18 -7.951245233303382e-16 0.0 0.0 3.975693351829396e-16 -28.396602765374812 12.819778212212634 71.92069804859005 -25.267915939464963 -9.865519080052211e-16 -2.869458224298339e-15 0.0 0.0 1.7331538205631272e-15 0.0 0.0 3.975693351829396e-16 -7.526150744903668 7.560437963596364 -8.063239664267098 0.0 0.0 3.975693351829396e-16 -2.7509786159754572 -52.77100533986226 -47.012002522370985 132.59202408555547 0.0 0.0 -1.987846675914698e-16 0.0 0.0 0.0 0.0 1.5902773407317584e-15 -1.5990302123053164 -31.593703531656107 -5.198659641667897 -1.173170021204739 28.61959845136668 0.41810830548105005 0.0 0.0 3.975693351829396e-16
0.0 0.0 771.5299988148025 25.0980873972508 11.575718118700753 8.03824305043817 0.0 0.0 -7.951386703658792e-16 -1.9782408032611023 -36.791120755412976 -1.983021923874469 0.7911058112644425 30.968045520767816 1.0788377923942096 0.0 0.0 -3.975693351829396e-16 0.0 0.0 -7.951386703658792e-16 0.05677637791013436 1.228694147325479 3.435744165019378 0.6864605453897693 -3.9518057740142137e-16 3.999438258059353e-16 0.0 0.0 0.0 -28.356918101661133 12.673461220629338 71.8525838271986 -25.316062874559343 -1.1843868146920747e-15 8.902137109645826e-15 0.0 0.0 2.2735996355774353e-15 0.0 0.0 0.0 -7.69110533504185 7.390462029293823 -8.08362477519271 0.0 0.0 0.0 -2.674190045684341 -52.81763818260235 -46.850366182527274 132.505045365432 -3.2608498307935512e-15 -8.384168595349787e-15 1.987846675914698e-16 0.0 0.0 0.0 0.0 -7.951386703658792e-16 -1.649254555287844 -31.896253647867177 -5.22817509351033 -1.1692495709061008 28.987633530278362 0.42066634991756513 -5.517382872562698e-33 -1.5902773407317582e-15 -3.9756933518293955e-16
0.0 0.0 771.5299988148025 25.101299973635083 11.560482879063573 8.09644348910457 0.0 0.0 3.975693351829396e-16 -1.9795481588860637 -36.887667084444686 -1.9984352517025723 0.7934608433524383 31.441468969958986 0.9984307845193402 3.1805546814635168e-15 1.6552148617688095e-32 5.963540027744094e-16 0.0 0.0 3.975693351829396e-16 0.05845881759531369 1.2686284686244118 3.460146571117706 0.6975671448054196 3.7578055358747317e-16 -3.580477877368531e-15 0.0 0.0 7.951386703658792e-16 -28.09830286770873 12.603592422507354 71.77596793036129 -25.31134683267828 -3.5712652604165274e-15 1.590431507367518e-14 7.951386703658794e-16 -7.951386703658794e-16 -2.5469285535157073e-15 0.0 0.0 7.951386703658792e-16 -7.75648162752715 7.388471646396989 -8.115313502788066 0.0 0.0 7.951386703658792e-16 -2.550231423361098 -52.697377879984714 -46.676256523428464 132.62441828349466 -9.09475665836762e-15 -1.0936359675900739e-14 3.975693351829396e-16 0.0 0.0 0.0 0.0 3.975693351829396e-16 -1.6424667387932925 -31.860300636844055 -5.306897139119555 -1.2349096002571598 29.31551823456939 0.4231435378862615 0.0 0.0 0.0
0.0 0.0 771.5299988148025 25.085706720485227 11.472667857632278 8.120234757538553 0.0 0.0 3.975693351829396e-16 -1.9870199791486896 -36.88213140997234 -1.98793160972392 0.8219318671008561 31.88399201878843 0.9118909739328686 0.0 0.0 1.987846675914698e-16 0.0 0.0 3.975693351829396e-16 0.058619983420062145 1.2670274011910514 3.4713681617714327 0.690553238014821 -1.9806231114685763e-15 1.204665465497327e-15 1.1034765745125397e-32 -1.5902773407317582e-15 7.951386703658791e-16 -27.914030170629477 12.53668417410332 71.73421057749387 -25.30171205816987 -5.6284106099598795e-15 1.0553034612712318e-14 -7.951386703658791e-16 -1.6983194154607056e-32 2.4475362197199716e-15 1.1034765745125397e-32 -1.5902773407317582e-15 7.951386703658791e-16 -7.735856481626752 7.4472392774818745 -8.13459495817922 1.1034765745125397e-32 -1.5902773407317582e-15 7.951386703658791e-16 -2.2202732707696247 -52.31374029826063 -46.29885381458506 132.70849673275535 3.275730339840799e-15 8.378365914358386e-15 -6.460501696722768e-16 -1.5902773407317582e-15 -8.965747167914385e-33 0.0 0.0 3.975693351829396e-16 -1.6467313341333818 -31.822209859605955 -5.297525915344848 -1.2422966262294726 29.693236497297722 0.34241866989050956 0.0 0.0 0.0
0.0 0.0 771.5299988148025 25.08645956170424 11.39734994174722 8.25337389473696 0.0 0.0 3.975693351829396e-16 -2.0748688419728225 -36.96611681650415 -2.113133251564869 0.8398503770089174 32.163479547762094 0.8075318530387806 0.0 0.0 5.963540027744094e-16 0.0 0.0 3.975693351829396e-16 0.0645190937260737 1.3395862644835572 3.3549718527270067 0.6944436995764875 4.1201795969697704e-16 2.382962887492356e-15 0.0 0.0 1.1927080055488188e-15 -27.849962357016434 12.484357601010148 71.72175243999448 -25.30022925839767 -7.167831169992324e-16 -7.698891968346125e-15 0.0 0.0 1.4908850069360235e-16 0.0 0.0 1.1927080055488188e-15 -7.751668544457806 7.408991212227962 -8.250606603544286 0.0 0.0 1.1927080055488188e-15 -1.74835106976255 -52.09228877682408 -45.83129911061579 132.75635025848737 -6.193285391999673e-15 -9.651439328741432e-15 0.0 0.0 0.0 0.0 0.0 3.975693351829396e-16 -1.7132029919974152 -31.806539963947664 -5.439251089194592 -1.2540257075272472 29.759739762182946 0.311273717360909 0.0 -1.789062008323228e-15 0.0
